# xmcd
#
# Track frame offsets:
#	150
#	9757
#	10673
#	53283
#	69875
#	81992
#	153329
#
# Disc length: 2163 seconds
#
# Revision: 1
# Processed by: cddbd v1.5.2PL0 Copyright (c) Steve Scherf et al.
# Submitted via: audiograbber 1.83.01
#
DISCID=39087107
DTITLE=Grateful Dead - 69-02-04 The Music Box, Omaha NE
DYEAR=1900
DGENRE=
TTITLE0=Cryptical Envelopment
TTITLE1=Drums
TTITLE2=The Other One
TTITLE3=Alligator
TTITLE4=Drums
TTITLE5=Caution
TTITLE6=Feedback
EXTD=
EXTT0=
EXTT1=
EXTT2=
EXTT3=
EXTT4=
EXTT5=
EXTT6=
PLAYORDER=
